<svg xmlns="http://www.w3.org/2000/svg" width="40" height="40" fill="none" viewBox="0 0 40 40"><rect width="40" height="40" fill="#4d5ae5" rx="20"/><g fill="#f4f4fd" clip-path="url(#a)"><path d="M27.996 28H28V22.13c0-2.87-.618-5.082-3.974-5.082-1.613 0-2.696.886-3.138 1.725h-.047v-1.457H17.66V28h3.314v-5.29c0-1.392.264-2.738 1.988-2.738 1.7 0 1.725 1.589 1.725 2.828V28zM12.264 17.318h3.317V28h-3.317zM13.921 12c-1.06 0-1.92.86-1.92 1.921s.86 1.94 1.92 1.94 1.922-.88 1.922-1.94S14.98 12 13.92 12"/></g><defs><clipPath id="a"><path fill="#fff" d="M12 12h16v16H12z"/></clipPath></defs></svg>